<svg width="200" height="200" viewBox="0 0 200 200" fill="none" xmlns="http://www.w3.org/2000/svg">
<path d="M0 97.8892C0 43.8265 44.294 0 98.9333 0C153.573 0 197.867 43.8265 197.867 97.8892C197.867 151.952 153.573 195.778 98.9333 195.778C44.294 195.778 0 151.952 0 97.8892Z" fill="#DCDCDC"/>
<mask id="mask0_114_539" style="mask-type:alpha" maskUnits="userSpaceOnUse" x="0" y="0" width="198" height="196">
<path d="M98.9333 195.778C153.573 195.778 197.867 151.952 197.867 97.8892C197.867 43.8265 153.573 0 98.9333 0C44.294 0 0 43.8265 0 97.8892C0 151.952 44.294 195.778 98.9333 195.778Z" fill="#DCDCDC"/>
</mask>
<g mask="url(#mask0_114_539)">
<path d="M110.933 107.651C120.064 107.651 127.467 100.327 127.467 91.2924C127.467 82.2577 120.064 74.9336 110.933 74.9336C101.802 74.9336 94.3999 82.2577 94.3999 91.2924C94.3999 100.327 101.802 107.651 110.933 107.651Z" fill="#CCCBCB"/>
<path d="M157.867 125.593C165.525 125.593 171.733 119.451 171.733 111.873C171.733 104.296 165.525 98.1528 157.867 98.1528C150.208 98.1528 144 104.296 144 111.873C144 119.451 150.208 125.593 157.867 125.593Z" fill="#C4C4C4"/>
<path d="M160.266 78.6278C166.599 78.6278 171.733 73.5482 171.733 67.2822C171.733 61.0161 166.599 55.9365 160.266 55.9365C153.934 55.9365 148.8 61.0161 148.8 67.2822C148.8 73.5482 153.934 78.6278 160.266 78.6278Z" fill="#C4C4C4"/>
<path d="M137.867 155.673C144.199 155.673 149.333 150.593 149.333 144.327C149.333 138.061 144.199 132.981 137.867 132.981C131.534 132.981 126.4 138.061 126.4 144.327C126.4 150.593 131.534 155.673 137.867 155.673Z" fill="#C4C4C4"/>
<path d="M78.6665 103.958C80.8756 103.958 82.6665 102.186 82.6665 99.9998C82.6665 97.814 80.8756 96.042 78.6665 96.042C76.4574 96.042 74.6665 97.814 74.6665 99.9998C74.6665 102.186 76.4574 103.958 78.6665 103.958Z" fill="#C4C4C4"/>
<path d="M84.5333 107.652C85.8588 107.652 86.9333 106.589 86.9333 105.277C86.9333 103.966 85.8588 102.902 84.5333 102.902C83.2078 102.902 82.1333 103.966 82.1333 105.277C82.1333 106.589 83.2078 107.652 84.5333 107.652Z" fill="#C4C4C4"/>
<path d="M61.8668 79.6831C74.238 79.6831 84.2668 69.7602 84.2668 57.5195C84.2668 45.2789 74.238 35.356 61.8668 35.356C49.4956 35.356 39.4668 45.2789 39.4668 57.5195C39.4668 69.7602 49.4956 79.6831 61.8668 79.6831Z" fill="#C4C4C4"/>
<path d="M32.2666 131.398C46.5523 131.398 58.1332 119.94 58.1332 105.805C58.1332 91.6696 46.5523 80.2109 32.2666 80.2109C17.9808 80.2109 6.3999 91.6696 6.3999 105.805C6.3999 119.94 17.9808 131.398 32.2666 131.398Z" fill="#C4C4C4"/>
<path d="M78.1331 122.955C82.1096 122.955 85.3331 119.766 85.3331 115.831C85.3331 111.897 82.1096 108.707 78.1331 108.707C74.1567 108.707 70.9331 111.897 70.9331 115.831C70.9331 119.766 74.1567 122.955 78.1331 122.955Z" fill="#C4C4C4"/>
<path d="M73.5997 163.061C80.3744 163.061 85.8663 157.627 85.8663 150.923C85.8663 144.22 80.3744 138.786 73.5997 138.786C66.825 138.786 61.333 144.22 61.333 150.923C61.333 157.627 66.825 163.061 73.5997 163.061Z" fill="#C4C4C4"/>
<path d="M47.9997 145.118C50.6507 145.118 52.7997 142.992 52.7997 140.369C52.7997 137.746 50.6507 135.62 47.9997 135.62C45.3487 135.62 43.1997 137.746 43.1997 140.369C43.1997 142.992 45.3487 145.118 47.9997 145.118Z" fill="#C4C4C4"/>
<path d="M45.8666 165.699C49.9903 165.699 53.3332 162.391 53.3332 158.311C53.3332 154.231 49.9903 150.923 45.8666 150.923C41.7428 150.923 38.3999 154.231 38.3999 158.311C38.3999 162.391 41.7428 165.699 45.8666 165.699Z" fill="#C4C4C4"/>
<path d="M115.467 31.1345C119.738 31.1345 123.2 27.7087 123.2 23.4828C123.2 19.2568 119.738 15.8311 115.467 15.8311C111.196 15.8311 107.733 19.2568 107.733 23.4828C107.733 27.7087 111.196 31.1345 115.467 31.1345Z" fill="#C4C4C4"/>
<path d="M118.133 53.2981C120.048 53.2981 121.6 51.7624 121.6 49.8681C121.6 47.9737 120.048 46.438 118.133 46.438C116.219 46.438 114.667 47.9737 114.667 49.8681C114.667 51.7624 116.219 53.2981 118.133 53.2981Z" fill="#C4C4C4"/>
<path d="M113.866 131.926C115.486 131.926 116.8 130.626 116.8 129.023C116.8 127.421 115.486 126.121 113.866 126.121C112.246 126.121 110.933 127.421 110.933 129.023C110.933 130.626 112.246 131.926 113.866 131.926Z" fill="#C4C4C4"/>
<path d="M120 215.831C133.844 215.831 145.066 204.727 145.066 191.029C145.066 177.331 133.844 166.227 120 166.227C106.156 166.227 94.9331 177.331 94.9331 191.029C94.9331 204.727 106.156 215.831 120 215.831Z" fill="#C4C4C4"/>
<path d="M185.066 227.44C257.821 227.44 316.8 169.556 316.8 98.1528C316.8 26.7493 257.821 -31.1348 185.066 -31.1348C112.312 -31.1348 53.333 26.7493 53.333 98.1528C53.333 169.556 112.312 227.44 185.066 227.44Z" fill="#535D74" fill-opacity="0.7"/>
</g>
</svg>
