<svg width="200" height="200" viewBox="0 0 200 200" fill="none" xmlns="http://www.w3.org/2000/svg">
<g clip-path="url(#clip0_114_967)">
<path d="M197.867 102.111C197.867 156.174 153.573 200 98.9334 200C44.2939 200 1.52588e-05 156.174 1.52588e-05 102.111C1.52588e-05 48.048 44.2939 4.22163 98.9334 4.22163C153.573 4.22163 197.867 48.048 197.867 102.111Z" fill="#DCDCDC"/>
<mask id="mask0_114_967" style="mask-type:alpha" maskUnits="userSpaceOnUse" x="0" y="4" width="198" height="196">
<path d="M98.9334 4.22163C44.294 4.22163 1.52588e-05 48.0481 1.52588e-05 102.111C1.52588e-05 156.174 44.294 200 98.9334 200C153.573 200 197.867 156.174 197.867 102.111C197.867 48.0481 153.573 4.22163 98.9334 4.22163Z" fill="#DCDCDC"/>
</mask>
<g mask="url(#mask0_114_967)">
<path d="M86.9335 92.3482C77.8024 92.3482 70.4001 99.6723 70.4001 108.707C70.4001 117.742 77.8024 125.066 86.9335 125.066C96.0646 125.066 103.467 117.742 103.467 108.707C103.467 99.6723 96.0646 92.3482 86.9335 92.3482Z" fill="#CCCBCB"/>
<path d="M40 74.406C32.3417 74.406 26.1334 80.5488 26.1334 88.1264C26.1334 95.7039 32.3417 101.847 40 101.847C47.6584 101.847 53.8667 95.7039 53.8667 88.1264C53.8667 80.5488 47.6584 74.406 40 74.406Z" fill="#C4C4C4"/>
<path d="M37.6002 121.372C31.2674 121.372 26.1336 126.451 26.1336 132.717C26.1336 138.983 31.2674 144.063 37.6002 144.063C43.9331 144.063 49.0669 138.983 49.0669 132.717C49.0669 126.451 43.9331 121.372 37.6002 121.372Z" fill="#C4C4C4"/>
<path d="M60.0001 44.3268C53.6673 44.3268 48.5335 49.4064 48.5335 55.6724C48.5335 61.9384 53.6673 67.0181 60.0001 67.0181C66.333 67.0181 71.4668 61.9384 71.4668 55.6724C71.4668 49.4064 66.333 44.3268 60.0001 44.3268Z" fill="#C4C4C4"/>
<path d="M119.2 96.042C116.991 96.042 115.2 97.8139 115.2 99.9997C115.2 102.186 116.991 103.958 119.2 103.958C121.409 103.958 123.2 102.186 123.2 99.9997C123.2 97.8139 121.409 96.042 119.2 96.042Z" fill="#C4C4C4"/>
<path d="M113.333 92.3483C112.008 92.3483 110.933 93.4115 110.933 94.723C110.933 96.0345 112.008 97.0977 113.333 97.0977C114.659 97.0977 115.733 96.0345 115.733 94.723C115.733 93.4115 114.659 92.3483 113.333 92.3483Z" fill="#C4C4C4"/>
<path d="M136 120.316C123.629 120.316 113.6 130.239 113.6 142.48C113.6 154.721 123.629 164.644 136 164.644C148.371 164.644 158.4 154.721 158.4 142.48C158.4 130.239 148.371 120.316 136 120.316Z" fill="#C4C4C4"/>
<path d="M165.6 68.6012C151.314 68.6012 139.733 80.0599 139.733 94.1949C139.733 108.33 151.314 119.789 165.6 119.789C179.886 119.789 191.467 108.33 191.467 94.1949C191.467 80.0599 179.886 68.6012 165.6 68.6012Z" fill="#C4C4C4"/>
<path d="M119.734 77.0445C115.757 77.0445 112.534 80.234 112.534 84.1685C112.534 88.103 115.757 91.2925 119.734 91.2925C123.71 91.2925 126.934 88.103 126.934 84.1685C126.934 80.234 123.71 77.0445 119.734 77.0445Z" fill="#C4C4C4"/>
<path d="M124.267 36.939C117.492 36.939 112 42.373 112 49.0762C112 55.7794 117.492 61.2134 124.267 61.2134C131.042 61.2134 136.534 55.7794 136.534 49.0762C136.534 42.373 131.042 36.939 124.267 36.939Z" fill="#C4C4C4"/>
<path d="M149.867 54.8812C147.216 54.8812 145.067 57.0076 145.067 59.6305C145.067 62.2535 147.216 64.3799 149.867 64.3799C152.518 64.3799 154.667 62.2535 154.667 59.6305C154.667 57.0076 152.518 54.8812 149.867 54.8812Z" fill="#C4C4C4"/>
<path d="M152 34.3004C147.876 34.3004 144.533 37.6081 144.533 41.6883C144.533 45.7685 147.876 49.0762 152 49.0762C156.124 49.0762 159.467 45.7685 159.467 41.6883C159.467 37.6081 156.124 34.3004 152 34.3004Z" fill="#C4C4C4"/>
<path d="M82.4 168.865C78.129 168.865 74.6666 172.291 74.6666 176.517C74.6666 180.743 78.129 184.168 82.4 184.168C86.671 184.168 90.1333 180.743 90.1333 176.517C90.1333 172.291 86.671 168.865 82.4 168.865Z" fill="#C4C4C4"/>
<path d="M79.7335 146.702C77.8189 146.702 76.2669 148.238 76.2669 150.132C76.2669 152.026 77.8189 153.562 79.7335 153.562C81.6481 153.562 83.2002 152.026 83.2002 150.132C83.2002 148.238 81.6481 146.702 79.7335 146.702Z" fill="#C4C4C4"/>
<path d="M84.0003 68.0737C82.3802 68.0737 81.0669 69.3731 81.0669 70.976C81.0669 72.579 82.3802 73.8784 84.0003 73.8784C85.6203 73.8784 86.9336 72.579 86.9336 70.976C86.9336 69.3731 85.6203 68.0737 84.0003 68.0737Z" fill="#C4C4C4"/>
<path d="M77.8669 -15.8313C64.023 -15.8313 52.8003 -4.72699 52.8003 8.97084C52.8003 22.6687 64.023 33.7729 77.8669 33.7729C91.7109 33.7729 102.934 22.6687 102.934 8.97084C102.934 -4.72699 91.7109 -15.8313 77.8669 -15.8313Z" fill="#C4C4C4"/>
<path d="M98.6668 203.166H303.467V0.527496H98.6668V203.166Z" fill="#535D74" fill-opacity="0.7"/>
</g>
</g>
<defs>
<clipPath id="clip0_114_967">
<rect width="200" height="200" fill="white" transform="matrix(-1 0 0 -1 200 200)"/>
</clipPath>
</defs>
</svg>
