<svg width="200" height="200" viewBox="0 0 200 200" fill="none" xmlns="http://www.w3.org/2000/svg">
<path d="M2.11084 97.8892C2.11084 43.8265 45.9373 0 100 0C154.063 0 197.889 43.8265 197.889 97.8892C197.889 151.952 154.063 195.778 100 195.778C45.9373 195.778 2.11084 151.952 2.11084 97.8892Z" fill="#DCDCDC"/>
<mask id="mask0_62_1460" style="mask-type:alpha" maskUnits="userSpaceOnUse" x="2" y="0" width="196" height="196">
<path d="M100 195.778C154.063 195.778 197.889 151.952 197.889 97.8892C197.889 43.8265 154.063 0 100 0C45.9373 0 2.11084 43.8265 2.11084 97.8892C2.11084 151.952 45.9373 195.778 100 195.778Z" fill="#DCDCDC"/>
</mask>
<g mask="url(#mask0_62_1460)">
<path d="M111.873 107.652C120.908 107.652 128.232 100.328 128.232 91.2929C128.232 82.2582 120.908 74.9341 111.873 74.9341C102.838 74.9341 95.5142 82.2582 95.5142 91.2929C95.5142 100.328 102.838 107.652 111.873 107.652Z" fill="#CCCBCB"/>
<path d="M158.311 125.594C165.889 125.594 172.031 119.451 172.031 111.874C172.031 104.296 165.889 98.1533 158.311 98.1533C150.734 98.1533 144.591 104.296 144.591 111.874C144.591 119.451 150.734 125.594 158.311 125.594Z" fill="#C4C4C4"/>
<path d="M160.686 78.6283C166.952 78.6283 172.032 73.5487 172.032 67.2827C172.032 61.0166 166.952 55.937 160.686 55.937C154.42 55.937 149.34 61.0166 149.34 67.2827C149.34 73.5487 154.42 78.6283 160.686 78.6283Z" fill="#C4C4C4"/>
<path d="M138.522 155.673C144.788 155.673 149.868 150.593 149.868 144.327C149.868 138.061 144.788 132.981 138.522 132.981C132.256 132.981 127.177 138.061 127.177 144.327C127.177 150.593 132.256 155.673 138.522 155.673Z" fill="#C4C4C4"/>
<path d="M79.947 103.958C82.1329 103.958 83.9048 102.186 83.9048 100C83.9048 97.8144 82.1329 96.0425 79.947 96.0425C77.7612 96.0425 75.9893 97.8144 75.9893 100C75.9893 102.186 77.7612 103.958 79.947 103.958Z" fill="#C4C4C4"/>
<path d="M85.7516 107.652C87.0631 107.652 88.1263 106.589 88.1263 105.277C88.1263 103.966 87.0631 102.902 85.7516 102.902C84.4401 102.902 83.377 103.966 83.377 105.277C83.377 106.589 84.4401 107.652 85.7516 107.652Z" fill="#C4C4C4"/>
<path d="M63.3242 79.6836C75.5648 79.6836 85.4878 69.7606 85.4878 57.52C85.4878 45.2794 75.5648 35.3564 63.3242 35.3564C51.0836 35.3564 41.1606 45.2794 41.1606 57.52C41.1606 69.7606 51.0836 79.6836 63.3242 79.6836Z" fill="#C4C4C4"/>
<path d="M34.0365 131.398C48.1715 131.398 59.6302 119.94 59.6302 105.805C59.6302 91.6696 48.1715 80.2109 34.0365 80.2109C19.9015 80.2109 8.44287 91.6696 8.44287 105.805C8.44287 119.94 19.9015 131.398 34.0365 131.398Z" fill="#C4C4C4"/>
<path d="M79.4194 122.955C83.3539 122.955 86.5434 119.766 86.5434 115.831C86.5434 111.897 83.3539 108.707 79.4194 108.707C75.4849 108.707 72.2954 111.897 72.2954 115.831C72.2954 119.766 75.4849 122.955 79.4194 122.955Z" fill="#C4C4C4"/>
<path d="M74.9336 163.061C81.6368 163.061 87.0708 157.627 87.0708 150.923C87.0708 144.22 81.6368 138.786 74.9336 138.786C68.2304 138.786 62.7964 144.22 62.7964 150.923C62.7964 157.627 68.2304 163.061 74.9336 163.061Z" fill="#C4C4C4"/>
<path d="M49.6038 145.119C52.2268 145.119 54.3532 142.992 54.3532 140.369C54.3532 137.746 52.2268 135.62 49.6038 135.62C46.9808 135.62 44.8545 137.746 44.8545 140.369C44.8545 142.992 46.9808 145.119 49.6038 145.119Z" fill="#C4C4C4"/>
<path d="M47.4933 165.7C51.5735 165.7 54.8812 162.392 54.8812 158.312C54.8812 154.231 51.5735 150.924 47.4933 150.924C43.4131 150.924 40.1055 154.231 40.1055 158.312C40.1055 162.392 43.4131 165.7 47.4933 165.7Z" fill="#C4C4C4"/>
<path d="M116.359 31.1345C120.585 31.1345 124.01 27.7087 124.01 23.4828C124.01 19.2568 120.585 15.8311 116.359 15.8311C112.133 15.8311 108.707 19.2568 108.707 23.4828C108.707 27.7087 112.133 31.1345 116.359 31.1345Z" fill="#C4C4C4"/>
<path d="M118.997 53.2981C120.891 53.2981 122.427 51.7624 122.427 49.8681C122.427 47.9737 120.891 46.438 118.997 46.438C117.103 46.438 115.567 47.9737 115.567 49.8681C115.567 51.7624 117.103 53.2981 118.997 53.2981Z" fill="#C4C4C4"/>
<path d="M114.775 131.926C116.378 131.926 117.678 130.627 117.678 129.024C117.678 127.421 116.378 126.122 114.775 126.122C113.172 126.122 111.873 127.421 111.873 129.024C111.873 130.627 113.172 131.926 114.775 131.926Z" fill="#C4C4C4"/>
<path d="M120.844 215.831C134.542 215.831 145.646 204.727 145.646 191.029C145.646 177.331 134.542 166.227 120.844 166.227C107.146 166.227 96.042 177.331 96.042 191.029C96.042 204.727 107.146 215.831 120.844 215.831Z" fill="#C4C4C4"/>
<path d="M121.372 232.718C193.358 232.718 251.715 174.834 251.715 103.43C251.715 32.0266 193.358 -25.8574 121.372 -25.8574C49.3854 -25.8574 -8.97119 32.0266 -8.97119 103.43C-8.97119 174.834 49.3854 232.718 121.372 232.718Z" fill="#535D74" fill-opacity="0.7"/>
</g>
</svg>
