<svg width="200" height="200" viewBox="0 0 200 200" fill="none" xmlns="http://www.w3.org/2000/svg">
<g clip-path="url(#clip0_114_1433)">
<path d="M0 97.8892C0 43.8265 44.294 0 98.9333 0C153.573 0 197.867 43.8265 197.867 97.8892C197.867 151.952 153.573 195.778 98.9333 195.778C44.294 195.778 0 151.952 0 97.8892Z" fill="#DCDCDC"/>
<path d="M-2 97.8892C-2 43.8265 42.7715 0 98 0C153.229 0 198 43.8265 198 97.8892C198 151.952 153.229 195.778 98 195.778C42.7715 195.778 -2 151.952 -2 97.8892Z" fill="#DCDCDC"/>
<mask id="mask0_114_1433" style="mask-type:alpha" maskUnits="userSpaceOnUse" x="-2" y="0" width="200" height="196">
<path d="M98 195.778C153.228 195.778 198 151.952 198 97.8892C198 43.8265 153.228 0 98 0C42.7715 0 -2 43.8265 -2 97.8892C-2 151.952 42.7715 195.778 98 195.778Z" fill="#DCDCDC"/>
</mask>
<g mask="url(#mask0_114_1433)">
<path d="M110.13 107.652C119.359 107.652 126.841 100.328 126.841 91.2929C126.841 82.2582 119.359 74.9341 110.13 74.9341C100.9 74.9341 93.418 82.2582 93.418 91.2929C93.418 100.328 100.9 107.652 110.13 107.652Z" fill="#CCCBCB"/>
<path d="M157.569 125.593C165.31 125.593 171.585 119.451 171.585 111.873C171.585 104.296 165.31 98.1528 157.569 98.1528C149.828 98.1528 143.553 104.296 143.553 111.873C143.553 119.451 149.828 125.593 157.569 125.593Z" fill="#C4C4C4"/>
<path d="M159.995 78.6278C166.396 78.6278 171.585 73.5482 171.585 67.2822C171.585 61.0161 166.396 55.9365 159.995 55.9365C153.593 55.9365 148.404 61.0161 148.404 67.2822C148.404 73.5482 153.593 78.6278 159.995 78.6278Z" fill="#C4C4C4"/>
<path d="M137.353 155.673C143.755 155.673 148.944 150.593 148.944 144.327C148.944 138.061 143.755 132.981 137.353 132.981C130.952 132.981 125.763 138.061 125.763 144.327C125.763 150.593 130.952 155.673 137.353 155.673Z" fill="#C4C4C4"/>
<path d="M77.5153 103.958C79.7483 103.958 81.5584 102.186 81.5584 99.9998C81.5584 97.814 79.7483 96.042 77.5153 96.042C75.2823 96.042 73.4722 97.814 73.4722 99.9998C73.4722 102.186 75.2823 103.958 77.5153 103.958Z" fill="#C4C4C4"/>
<path d="M83.4449 107.652C84.7847 107.652 85.8708 106.589 85.8708 105.277C85.8708 103.966 84.7847 102.902 83.4449 102.902C82.1051 102.902 81.019 103.966 81.019 105.277C81.019 106.589 82.1051 107.652 83.4449 107.652Z" fill="#C4C4C4"/>
<path d="M60.5341 79.6831C73.0387 79.6831 83.1756 69.7602 83.1756 57.5195C83.1756 45.2789 73.0387 35.356 60.5341 35.356C48.0295 35.356 37.8926 45.2789 37.8926 57.5195C37.8926 69.7602 48.0295 79.6831 60.5341 79.6831Z" fill="#C4C4C4"/>
<path d="M30.6148 131.398C45.0546 131.398 56.7603 119.94 56.7603 105.805C56.7603 91.6696 45.0546 80.2109 30.6148 80.2109C16.175 80.2109 4.46924 91.6696 4.46924 105.805C4.46924 119.94 16.175 131.398 30.6148 131.398Z" fill="#C4C4C4"/>
<path d="M76.9759 122.955C80.9952 122.955 84.2535 119.766 84.2535 115.831C84.2535 111.897 80.9952 108.707 76.9759 108.707C72.9565 108.707 69.6982 111.897 69.6982 115.831C69.6982 119.766 72.9565 122.955 76.9759 122.955Z" fill="#C4C4C4"/>
<path d="M72.3935 163.061C79.2413 163.061 84.7925 157.627 84.7925 150.923C84.7925 144.22 79.2413 138.786 72.3935 138.786C65.5458 138.786 59.9946 144.22 59.9946 150.923C59.9946 157.627 65.5458 163.061 72.3935 163.061Z" fill="#C4C4C4"/>
<path d="M46.5178 145.119C49.1973 145.119 51.3695 142.992 51.3695 140.369C51.3695 137.746 49.1973 135.62 46.5178 135.62C43.8382 135.62 41.666 137.746 41.666 140.369C41.666 142.992 43.8382 145.119 46.5178 145.119Z" fill="#C4C4C4"/>
<path d="M44.3616 165.699C48.5298 165.699 51.9088 162.391 51.9088 158.311C51.9088 154.231 48.5298 150.923 44.3616 150.923C40.1934 150.923 36.8145 154.231 36.8145 158.311C36.8145 162.391 40.1934 165.699 44.3616 165.699Z" fill="#C4C4C4"/>
<path d="M114.712 31.1345C119.029 31.1345 122.528 27.7087 122.528 23.4828C122.528 19.2568 119.029 15.8311 114.712 15.8311C110.395 15.8311 106.895 19.2568 106.895 23.4828C106.895 27.7087 110.395 31.1345 114.712 31.1345Z" fill="#C4C4C4"/>
<path d="M117.407 53.2981C119.343 53.2981 120.911 51.7624 120.911 49.8681C120.911 47.9737 119.343 46.438 117.407 46.438C115.472 46.438 113.903 47.9737 113.903 49.8681C113.903 51.7624 115.472 53.2981 117.407 53.2981Z" fill="#C4C4C4"/>
<path d="M113.094 131.926C114.732 131.926 116.059 130.626 116.059 129.023C116.059 127.421 114.732 126.121 113.094 126.121C111.457 126.121 110.129 127.421 110.129 129.023C110.129 130.626 111.457 131.926 113.094 131.926Z" fill="#C4C4C4"/>
<path d="M119.294 215.831C133.287 215.831 144.631 204.727 144.631 191.029C144.631 177.331 133.287 166.227 119.294 166.227C105.301 166.227 93.957 177.331 93.957 191.029C93.957 204.727 105.301 215.831 119.294 215.831Z" fill="#C4C4C4"/>
</g>
</g>
<defs>
<clipPath id="clip0_114_1433">
<rect width="200" height="200" fill="white"/>
</clipPath>
</defs>
</svg>
